<svg xmlns="http://www.w3.org/2000/svg" viewBox="0 0 300 220" fill="none">
  <defs>
    <linearGradient id="metal1" x1="0" y1="0" x2="1" y2="1">
      <stop offset="0%" stop-color="#e7ecec"/>
      <stop offset="100%" stop-color="#aebcbc"/>
    </linearGradient>
  </defs>
  <rect x="10" y="10" width="280" height="200" rx="0" fill="none"/>
  <path d="M40 60 L200 40 L260 70 L260 170 L100 190 L40 160 Z" fill="url(#metal1)" stroke="#1a1a1a" stroke-width="3"/>
  <path d="M40 60 L200 40 L200 140 L40 160 Z" fill="#dfe6e6" stroke="#1a1a1a" stroke-width="2"/>
  <circle cx="80" cy="90" r="10" fill="#1a1a1a"/>
  <circle cx="80" cy="90" r="5" fill="#ff6a00"/>
  <circle cx="160" cy="80" r="10" fill="#1a1a1a"/>
  <circle cx="160" cy="80" r="5" fill="#ff6a00"/>
  <circle cx="120" cy="130" r="10" fill="#1a1a1a"/>
  <circle cx="120" cy="130" r="5" fill="#ff6a00"/>
  <path d="M200 40 L260 70 L260 170 L200 140 Z" fill="#c7d1d1" stroke="#1a1a1a" stroke-width="2"/>
  <path d="M225 90 L245 100 L245 140 L225 130 Z" fill="#1a1a1a" opacity="0.85"/>
</svg>
